<svg width="28" height="34" viewBox="0 0 28 34" fill="none" xmlns="http://www.w3.org/2000/svg">
<path d="M25.4734 17.2061V31.3056C25.4734 31.9697 25.0173 32.4805 24.4243 32.4805H3.30498C2.712 32.4805 2.25586 31.9697 2.25586 31.3056V17.2061" stroke="#333333" stroke-width="1.5"/>
<path fill-rule="evenodd" clip-rule="evenodd" d="M26.3865 15.9797C26.3865 16.6438 25.9304 17.1547 25.3374 17.1547H2.34795C1.75497 17.1547 1.29883 16.6438 1.29883 15.9797V10.7179C1.29883 10.0538 1.75497 9.54297 2.34795 9.54297H25.3374C25.9304 9.54297 26.3865 10.0538 26.3865 10.7179V15.9797Z" stroke="#333333" stroke-width="1.5"/>
<path fill-rule="evenodd" clip-rule="evenodd" d="M20.5944 5.81381C19.5909 6.93769 15.0295 10.2071 13.9804 9.08327C12.9769 7.95939 15.8962 2.79979 16.8997 1.67591C17.9032 0.552039 19.5453 0.552039 20.5944 1.67591C21.5979 2.79979 21.5979 4.68994 20.5944 5.81381Z" stroke="#FBD846" stroke-width="1.5"/>
<path fill-rule="evenodd" clip-rule="evenodd" d="M7.0456 5.81351C8.04911 6.93738 12.6561 10.2579 13.6596 9.13405C14.6631 8.01017 11.7438 2.85057 10.6947 1.72669C9.69121 0.602821 8.04911 0.602821 7.0456 1.72669C6.04209 2.79948 6.04209 4.63855 7.0456 5.81351Z" stroke="#FBD846" stroke-width="1.5"/>
<path d="M10.6953 13.6811C10.6953 13.6811 11.3795 11.3312 14.0251 10.1562V32.4294" stroke="#FBD846" stroke-width="1.5"/>
<path d="M13.8418 10.207C13.8418 10.207 14.8909 14.2938 18.54 14.9069" stroke="#FBD846" stroke-width="1.5"/>
</svg>
